<?xml version="1.0" encoding="iso-8859-1"?>
<!-- Generator: Adobe Illustrator 19.0.0, SVG Export Plug-In . SVG Version: 6.00 Build 0)  -->
<svg version="1.1" id="Layer_1" xmlns="http://www.w3.org/2000/svg" xmlns:xlink="http://www.w3.org/1999/xlink" x="0px" y="0px"
	 viewBox="0 0 512.002 512.002" style="enable-background:new 0 0 512.002 512.002;" xml:space="preserve">
<rect x="394.166" y="169.654" style="fill:#E1B658;" width="28.389" height="13.541"/>
<path style="fill:#FF5240;" d="M176.407,206.918c0-4.408-3.585-7.994-7.994-7.994H20.874c-4.409,0-7.997,3.585-7.997,7.994v30.176
	h163.53V206.918z"/>
<path style="fill:#BDF3FF;" d="M169.926,352.521c0,1.858-0.173,3.679-0.485,5.45h12.212v-10.897h-12.212
	C169.754,348.844,169.926,350.661,169.926,352.521z"/>
<rect x="394.166" y="194.185" style="fill:#FF5240;" width="28.389" height="30.969"/>
<rect x="346.399" y="218.52" style="fill:#BDF3FF;" width="12.247" height="6.635"/>
<path style="fill:#FF5240;" d="M327.991,147.215c0-4.409-3.585-7.997-7.993-7.997h-95.675c-4.408,0-7.995,3.587-7.995,7.997v30.173
	h111.664V147.215z"/>
<path style="fill:#BDF3FF;" d="M84.544,347.073c0.313,1.771,0.485,3.589,0.485,5.447c0,1.858-0.173,3.679-0.485,5.45h23.361
	c-0.313-1.771-0.485-3.59-0.485-5.45c0-1.858,0.173-3.677,0.485-5.447H84.544z"/>
<path style="fill:#E1B658;" d="M138.673,332.258c-11.174,0-20.265,9.089-20.265,20.262c0,11.174,9.089,20.264,20.265,20.264
	c11.173,0,20.263-9.089,20.263-20.264C158.936,341.348,149.847,332.258,138.673,332.258z M142.563,356.406
	c-1.026,1.026-2.442,1.612-3.894,1.612c-1.442,0-2.858-0.586-3.884-1.612c-1.026-1.026-1.611-2.442-1.611-3.883
	c0-1.453,0.585-2.869,1.611-3.895c1.026-1.012,2.442-1.6,3.884-1.6c1.452,0,2.869,0.586,3.894,1.6
	c1.013,1.027,1.601,2.442,1.601,3.895C144.163,353.964,143.577,355.381,142.563,356.406z"/>
<g>
	<path style="fill:#BDF3FF;" d="M10.989,347.073v10.897h12.022c-0.313-1.771-0.485-3.59-0.485-5.45c0-1.86,0.182-3.677,0.496-5.447
		H10.989z"/>
	<rect x="262.086" y="212.073" style="fill:#BDF3FF;" width="20.145" height="19.534"/>
</g>
<g>
	<path style="fill:#E1B658;" d="M53.776,332.258c-11.171,0-20.261,9.089-20.261,20.262c0,11.174,9.088,20.264,20.261,20.264
		c11.174,0,20.265-9.089,20.265-20.264C74.041,341.348,64.95,332.258,53.776,332.258z M57.664,356.406
		c-1.026,1.026-2.442,1.612-3.883,1.612c-1.452,0-2.869-0.586-3.894-1.612c-1.013-1.026-1.601-2.442-1.601-3.883
		c0-1.453,0.586-2.869,1.601-3.895c1.026-1.012,2.442-1.6,3.894-1.6c1.441,0,2.857,0.586,3.883,1.6
		c1.027,1.027,1.612,2.442,1.612,3.895C59.276,353.964,58.69,355.381,57.664,356.406z"/>
	<rect x="75.56" y="272.32" style="fill:#E1B658;" width="38.17" height="22.003"/>
</g>
<g>
	<path style="fill:#129A58;" d="M150.764,323.711v-75.628H38.52v77.179c4.515-2.537,9.717-3.993,15.256-3.993
		c11.206,0,21.047,5.931,26.566,14.815h31.766c5.518-8.883,15.361-14.815,26.566-14.815
		C142.959,321.269,147.042,322.142,150.764,323.711z M124.718,299.829c0,3.034-2.46,5.495-5.495,5.495H70.065
		c-3.034,0-5.495-2.46-5.495-5.495V266.83c0-3.034,2.46-5.495,5.495-5.495h49.158c3.034,0,5.495,2.46,5.495,5.495V299.829z"/>
	<rect x="319.939" y="236.152" style="fill:#129A58;" width="122.63" height="65.18"/>
</g>
<path style="fill:#E1B658;" d="M349.671,332.258c-11.171,0-20.261,9.089-20.261,20.262c0,11.174,9.088,20.264,20.261,20.264
	c11.174,0,20.265-9.089,20.265-20.264C369.936,341.348,360.846,332.258,349.671,332.258z M353.56,356.406
	c-1.026,1.026-2.442,1.612-3.883,1.612c-1.452,0-2.869-0.586-3.894-1.612c-1.013-1.026-1.601-2.442-1.601-3.883
	c0-1.453,0.586-2.869,1.601-3.895c1.026-1.012,2.442-1.6,3.894-1.6c1.441,0,2.857,0.586,3.883,1.6
	c1.027,1.027,1.612,2.442,1.612,3.895C355.172,353.964,354.587,355.381,353.56,356.406z"/>
<path style="fill:#BDF3FF;" d="M380.925,352.521c0,1.858-0.173,3.679-0.485,5.45h12.407v-10.897h-12.407
	C380.753,348.844,380.925,350.661,380.925,352.521z"/>
<polygon style="fill:#FF5240;" points="453.548,357.97 492.939,357.97 453.548,319.796 "/>
<path style="fill:#EFD18D;" d="M235.375,336.084h2.836c5.518-8.883,15.361-14.815,26.566-14.815s21.048,5.931,26.566,14.815h31.766
	c5.517-8.883,15.358-14.815,26.563-14.815c11.206,0,21.048,5.931,26.566,14.815h22.103c3.034,0,5.495,2.46,5.495,5.495v16.391
	h38.723v-45.656H235.375V336.084z"/>
<g>
	<path style="fill:#BDF3FF;" d="M295.546,347.073c0.314,1.771,0.486,3.589,0.486,5.447c0,1.858-0.173,3.679-0.486,5.45h23.361
		c-0.313-1.771-0.485-3.59-0.485-5.45c0-1.858,0.173-3.677,0.485-5.447H295.546z"/>
	<path style="fill:#BDF3FF;" d="M221.798,347.073v10.897h12.21c-0.313-1.771-0.485-3.59-0.485-5.45c0-1.858,0.173-3.677,0.485-5.447
		H221.798z"/>
	<rect x="221.803" y="288.816" style="fill:#BDF3FF;" width="87.146" height="12.504"/>
</g>
<g>
	<path style="fill:#E1B658;" d="M264.778,332.258c-11.174,0-20.265,9.089-20.265,20.262c0,11.174,9.089,20.264,20.265,20.264
		c11.174,0,20.265-9.089,20.265-20.264C285.043,341.348,275.952,332.258,264.778,332.258z M268.661,356.406
		c-1.026,1.026-2.442,1.612-3.884,1.612c-1.441,0-2.857-0.586-3.883-1.612s-1.612-2.442-1.612-3.883
		c0-1.453,0.586-2.869,1.612-3.895c1.013-1.012,2.43-1.6,3.883-1.6s2.858,0.586,3.884,1.6c1.026,1.027,1.611,2.442,1.611,3.895
		C270.273,353.964,269.687,355.381,268.661,356.406z"/>
	<path style="fill:#E1B658;" d="M308.946,277.831v-89.454h-73.571v89.454H308.946z M251.097,206.578c0-3.034,2.46-5.495,5.495-5.495
		h31.134c3.034,0,5.495,2.46,5.495,5.495v30.524c0,3.034-2.46,5.495-5.495,5.495h-31.134c-3.034,0-5.495-2.46-5.495-5.495V206.578z"
		/>
</g>
<g>
	<path style="fill:#4F413B;" d="M119.223,261.335H70.065c-3.034,0-5.495,2.46-5.495,5.495v32.999c0,3.034,2.46,5.495,5.495,5.495
		h49.158c3.034,0,5.495-2.46,5.495-5.495V266.83C124.718,263.796,122.257,261.335,119.223,261.335z M113.728,294.334H75.56v-22.009
		h38.169V294.334z"/>
	<path style="fill:#4F413B;" d="M256.592,242.597h31.134c3.034,0,5.495-2.46,5.495-5.495v-30.524c0-3.034-2.46-5.495-5.495-5.495
		h-31.134c-3.034,0-5.495,2.46-5.495,5.495v30.524C251.097,240.138,253.557,242.597,256.592,242.597z M262.087,212.073h20.145
		v19.534h-20.145V212.073z"/>
	<path style="fill:#4F413B;" d="M453.548,304.493v-73.842c0-3.034-2.46-5.495-5.495-5.495h-14.515v-60.993
		c0-3.034-2.46-5.495-5.495-5.495h-39.375c-3.034,0-5.495,2.46-5.495,5.495v60.993h-13.538v-12.13c0-3.034-2.46-5.495-5.495-5.495
		h-23.238c-3.034,0-5.495,2.46-5.495,5.495v12.13h-15.474v-36.779h13.551c3.034,0,5.495-2.46,5.495-5.495v-35.668
		c0-10.468-8.516-18.986-18.982-18.986h-95.675c-10.468,0-18.985,8.518-18.985,18.986v35.668c0,3.034,2.46,5.495,5.495,5.495h13.554
		v89.454h-8.081c-3.034,0-5.495,2.46-5.495,5.495v23.493c0,3.034,2.46,5.495,5.495,5.495h8.081v23.77h-8.081
		c-3.034,0-5.495,2.46-5.495,5.495v5.447h-18.168v-5.447c0-3.034-2.46-5.495-5.495-5.495h-21.908
		c-1.02-1.642-2.189-3.181-3.485-4.603v-83.399h20.149c3.034,0,5.495-2.46,5.495-5.495v-35.67c0-10.467-8.517-18.984-18.984-18.984
		H20.874c-10.468,0-18.986,8.517-18.986,18.984v35.67c0,3.034,2.46,5.495,5.495,5.495h20.149v87.506
		c-0.104,0.161-0.194,0.331-0.297,0.495H5.495c-3.034,0-5.495,2.46-5.495,5.495v21.886c0,3.034,2.46,5.495,5.495,5.495h21.719
		c5.518,8.883,15.358,14.815,26.563,14.815c11.206,0,21.047-5.931,26.565-14.815h31.768c5.518,8.883,15.36,14.815,26.565,14.815
		c11.206,0,21.046-5.931,26.565-14.815h21.908c3.034,0,5.495-2.46,5.495-5.495v-5.45h18.168v5.45c0,3.034,2.46,5.495,5.495,5.495
		h21.908c5.518,8.883,15.36,14.815,26.565,14.815c11.206,0,21.047-5.931,26.565-14.815h31.767
		c5.518,8.883,15.358,14.815,26.563,14.815c11.206,0,21.047-5.931,26.565-14.815h130.269c2.238,0,4.252-1.357,5.093-3.432
		c0.841-2.075,0.338-4.452-1.269-6.009L453.548,304.493z M23.012,357.97H10.989v-10.897h12.032
		c-0.314,1.771-0.496,3.587-0.496,5.447C22.526,354.379,22.699,356.2,23.012,357.97z M53.776,372.785
		c-11.171,0-20.261-9.089-20.261-20.264c0-11.171,9.088-20.262,20.261-20.262c11.174,0,20.265,9.089,20.265,20.262
		C74.041,363.694,64.95,372.785,53.776,372.785z M107.905,357.97H84.544c0.313-1.771,0.485-3.59,0.485-5.45
		c0-1.858-0.173-3.677-0.485-5.447h23.361c-0.313,1.771-0.485,3.589-0.485,5.447C107.42,354.379,107.593,356.2,107.905,357.97z
		 M112.107,336.084H80.342c-5.519-8.883-15.361-14.815-26.566-14.815c-5.539,0-10.74,1.454-15.256,3.993v-77.179h112.244v75.628
		c-3.722-1.569-7.805-2.442-12.09-2.442C127.469,321.269,117.625,327.2,112.107,336.084z M138.673,372.785
		c-11.174,0-20.265-9.089-20.265-20.264c0-11.171,9.089-20.262,20.265-20.262c11.173,0,20.263,9.089,20.263,20.262
		C158.936,363.694,149.847,372.785,138.673,372.785z M12.877,237.094v-30.176c0-4.408,3.587-7.994,7.997-7.994h147.539
		c4.408,0,7.994,3.585,7.994,7.994v30.176H12.877z M181.653,357.97h-12.212c0.313-1.771,0.485-3.59,0.485-5.45
		c0-1.858-0.173-3.677-0.485-5.447h12.212V357.97z M394.165,169.659h28.386v13.539h-28.386V169.659z M394.165,194.187h28.386v30.969
		h-28.386V194.187z M346.399,218.523h12.25v6.635h-12.25V218.523z M216.327,177.388v-30.173c0-4.409,3.587-7.997,7.995-7.997h95.675
		c4.407,0,7.993,3.587,7.993,7.997v30.173H216.327z M308.946,188.378v89.454h-73.571v-89.454L308.946,188.378L308.946,188.378z
		 M221.798,301.324v-12.504h87.146v12.504H221.798z M234.009,357.97h-12.21v-10.897h12.21c-0.313,1.771-0.485,3.589-0.485,5.447
		C233.524,354.379,233.698,356.2,234.009,357.97z M264.778,372.785c-11.174,0-20.265-9.089-20.265-20.264
		c0-11.171,9.089-20.262,20.265-20.262c11.174,0,20.265,9.089,20.265,20.262C285.043,363.694,275.952,372.785,264.778,372.785z
		 M318.907,357.97h-23.361c0.313-1.771,0.486-3.59,0.486-5.45c0-1.858-0.172-3.677-0.486-5.447h23.361
		c-0.313,1.771-0.485,3.589-0.485,5.447C318.421,354.379,318.595,356.2,318.907,357.97z M349.671,372.785
		c-11.171,0-20.261-9.089-20.261-20.264c0-11.171,9.088-20.262,20.261-20.262c11.174,0,20.265,9.089,20.265,20.262
		C369.936,363.694,360.846,372.785,349.671,372.785z M392.846,357.97h-12.407c0.313-1.771,0.485-3.59,0.485-5.45
		c0-1.858-0.172-3.677-0.485-5.447h12.407V357.97z M442.559,357.97h-38.723v-16.391c0-3.034-2.46-5.495-5.495-5.495h-22.103
		c-5.518-8.883-15.361-14.815-26.566-14.815c-11.204,0-21.046,5.931-26.563,14.815h-31.766
		c-5.518-8.883-15.361-14.815-26.566-14.815c-11.206,0-21.048,5.931-26.566,14.815h-2.836v-23.77h207.185V357.97z M442.559,301.324
		H319.935v-65.178H442.56v65.178H442.559z M453.548,357.97v-38.174l39.391,38.174H453.548z"/>
	<path style="fill:#4F413B;" d="M53.781,347.029c-1.452,0-2.869,0.586-3.894,1.6c-1.013,1.027-1.601,2.442-1.601,3.895
		c0,1.441,0.586,2.857,1.601,3.883c1.026,1.026,2.442,1.612,3.894,1.612c1.441,0,2.857-0.586,3.883-1.612
		c1.027-1.026,1.612-2.442,1.612-3.883c0-1.453-0.585-2.869-1.612-3.895C56.638,347.616,55.222,347.029,53.781,347.029z"/>
	<path style="fill:#4F413B;" d="M138.668,347.029c-1.442,0-2.858,0.586-3.884,1.6c-1.026,1.027-1.611,2.442-1.611,3.895
		c0,1.441,0.585,2.857,1.611,3.883s2.442,1.612,3.884,1.612c1.452,0,2.869-0.586,3.894-1.612c1.013-1.026,1.601-2.442,1.601-3.883
		c0-1.453-0.586-2.869-1.601-3.895C141.538,347.616,140.121,347.029,138.668,347.029z"/>
	<path style="fill:#4F413B;" d="M264.778,347.029c-1.452,0-2.869,0.586-3.883,1.6c-1.026,1.027-1.612,2.442-1.612,3.895
		c0,1.441,0.586,2.857,1.612,3.883s2.442,1.612,3.883,1.612c1.442,0,2.858-0.586,3.884-1.612c1.026-1.026,1.611-2.442,1.611-3.883
		c0-1.453-0.586-2.869-1.611-3.895C267.637,347.616,266.231,347.029,264.778,347.029z"/>
	<path style="fill:#4F413B;" d="M349.678,347.029c-1.452,0-2.869,0.586-3.894,1.6c-1.013,1.027-1.601,2.442-1.601,3.895
		c0,1.441,0.586,2.857,1.601,3.883c1.026,1.026,2.442,1.612,3.894,1.612c1.441,0,2.857-0.586,3.883-1.612
		c1.027-1.026,1.612-2.442,1.612-3.883c0-1.453-0.585-2.869-1.612-3.895C352.535,347.616,351.118,347.029,349.678,347.029z"/>
</g>
<g>
</g>
<g>
</g>
<g>
</g>
<g>
</g>
<g>
</g>
<g>
</g>
<g>
</g>
<g>
</g>
<g>
</g>
<g>
</g>
<g>
</g>
<g>
</g>
<g>
</g>
<g>
</g>
<g>
</g>
</svg>
